<?xml version="1.0" encoding="UTF-8"?>
<!-- Created with Inkscape (http://www.inkscape.org/) -->
<svg width="755.91" height="755.91" version="1.1" viewBox="0 0 200 200" xmlns="http://www.w3.org/2000/svg" xmlns:xlink="http://www.w3.org/1999/xlink">
 <defs>
  <linearGradient id="linearGradient16656">
   <stop stop-color="#b31717" offset="0"/>
   <stop stop-color="#c6cb1f" offset=".25437"/>
   <stop stop-color="#1ecccc" offset=".57398"/>
   <stop stop-color="#9123e6" offset=".78595"/>
   <stop stop-color="#d92222" offset="1"/>
  </linearGradient>
  <linearGradient id="linearGradient1274-39-9-0-0-1-4-5-8" x1="-51.262" x2="58.04" y1="-99.036" y2="-206.8" gradientTransform="rotate(135 -5.5642e-6 6.8695e-6)" gradientUnits="userSpaceOnUse" xlink:href="#linearGradient16656"/>
  <linearGradient id="linearGradient1274-39-9-0-0-1-4-5-8-4" x1="-51.262" x2="58.04" y1="-99.036" y2="-206.8" gradientTransform="rotate(135 -5.8325e-6 7.3615e-6)" gradientUnits="userSpaceOnUse" xlink:href="#linearGradient16656"/>
 </defs>
 <g transform="translate(-4.8839 -11.176)">
  <path d="m187.74 126.67c-26.181 37.944-49.434 53.393-67.289 67.29-9.5377 7.423-21.566 7.7358-30.852-1e-5 -20.399-16.994-41.598-33.403-67.29-67.29-7.3017-9.6308-7.2587-21.189 0-30.852 25.852-34.416 45.323-47.69 67.29-67.29 9.018-8.0463 21.322-7.4334 30.852 0 26.522 20.688 51.917 45.599 67.289 67.29 6.9882 9.8606 6.8637 20.904 0 30.852z" fill="url(#linearGradient1274-39-9-0-0-1-4-5-8)" stop-color="#000000" stroke="#451d1d" stroke-width="12.178" style="paint-order:stroke markers fill"/>
  <path d="m187.74 126.67c-26.181 37.944-49.434 53.393-67.289 67.29-9.5377 7.423-21.566 7.7358-30.852-1e-5 -20.399-16.994-41.598-33.403-67.29-67.29-7.3017-9.6308-7.2587-21.189 0-30.852 25.852-34.416 45.323-47.69 67.29-67.29 9.018-8.0463 21.322-7.4334 30.852 0 26.522 20.688 51.917 45.599 67.289 67.29 6.9882 9.8606 6.8637 20.904 0 30.852z" fill="url(#linearGradient1274-39-9-0-0-1-4-5-8-4)" stop-color="#000000" style="paint-order:stroke markers fill"/>
  <path d="m105.14 22.883c-11.897-0.27368-19.711 8.2995-19.753 20.406-0.0549 15.855 12.738 25.203 12.738 25.203s-11.972-9.6517-24.716-9.632c-10.8 0.0167-26.873 6.4478-26.705 17.755 0.16752 11.307 16.705 17.016 26.705 17.042 9.8841 0.02541 24.716-10.203 24.716-10.203s-13.208 9.5821-13.527 22.843c-0.32705 13.625 10.996 23.922 20.347 23.528 9.3396-0.39308 19.413-6.5836 19.51-23.528 0.0691-12.159-12.3-22.24-12.3-22.24s12.039 9.2361 21.772 9.6008c10.026 0.37562 28.5-4.9476 28.724-17.042 0.19783-10.645-14.873-18.326-28.724-17.755-9.8504 0.40612-21.772 9.3343-21.772 9.3343s10.298-11.187 10.716-24.563c0.41882-13.401-6.8403-20.498-17.731-20.749z" color="#000000" fill="#fffffe" stop-color="#000000" style="paint-order:stroke markers fill"/>
  <path d="m41.696 149.66c8.3027 8.1145 18.948 21.67 44.668 42.358 15.408 12.393 26.542 8.0018 36.509 0 8.5665-6.8777 14.625-8.5973 47.215-42.358 2.4373-3.303 18.767-23.373 12.559-18.028-10.203 8.7847-38.852 29.523-60.652 31.969-12.086 1.356-22.144 1.6569-34.622-0.34989-25.683-4.1308-41.096-17.151-60.587-31.619-2.8597-2.1227 14.91 18.028 14.91 18.028z" color="#000000" fill="#fffffe" stop-color="#000000" style="paint-order:stroke markers fill"/>
 </g>
</svg>
